<?xml version="1.0" encoding="utf-8"?>
<svg width="872" height="641" viewBox="0 0 872 641" fill="none" xmlns="http://www.w3.org/2000/svg">
  <g clip-path="url(#clip0_22_49896)">
    <path d="M707.957 528.26C709.499 585.949 651.864 641.667 587.677 679.469C565.197 692.756 542.031 703.728 520.193 711.914C449.969 738.187 390.878 736.173 347.245 734.801C346.602 734.716 346.046 734.716 345.403 734.716C344.033 734.63 342.577 734.63 341.207 734.544C268.97 731.544 195.792 715.943 131.476 682.212C129.764 681.312 128.094 680.412 126.381 679.469C70.9295 649.767 15.5637 607.379 10.3826 539.789C7.81338 506.53 18.3042 472.714 38.2581 446.098C59.8392 417.382 91.3545 401.266 119.83 380.479C139.869 365.821 148.776 344.648 158.153 322.618C164.705 307.317 171.813 292.188 179.991 277.659C184.53 269.729 189.197 262.058 194.379 254.514C230.518 201.84 290.295 163.266 353.668 154.179C419.695 144.793 482.726 175.609 525.974 225.198C552.094 255.029 570.035 291.931 577.786 330.848C584.166 362.65 577.614 402.423 602.364 427.368C631.053 456.255 672.288 447.683 695.625 483.686C707.272 501.558 707.743 520.245 708 528.174L707.957 528.26Z" fill="white" fill-opacity="0.5"/>
    <path d="M444.918 344.125C488.2 307.024 501.059 239.299 471.456 195.718C454.396 170.594 428.079 160.671 415.157 156.847C409.786 149.009 396.169 131.628 373.106 125.307C332.888 114.246 298.01 146.197 293.081 150.716C246.892 193 229.484 296.247 292.576 346.685C333.552 379.457 400.34 382.302 444.886 344.125H444.918Z" fill="#40596B"/>
    <path d="M389.439 282.563H339.838V343.777H389.439V282.563Z" fill="#F0BF97"/>
    <path d="M389.439 282.563V312.017C363.248 313.913 348.305 310.531 339.838 305.348V282.563H389.439Z" fill="#E9AB86"/>
    <path d="M438.472 245.809C433.733 258.418 422.234 265.75 412.756 262.179C403.278 258.608 399.455 245.524 404.194 232.915C408.933 220.305 420.433 212.973 429.911 216.545C439.389 220.116 443.211 233.199 438.472 245.809Z" fill="#F0BF97"/>
    <path d="M298.799 245.809C303.538 258.418 315.038 265.75 324.516 262.179C333.994 258.608 337.817 245.524 333.078 232.915C328.339 220.305 316.839 212.973 307.361 216.545C297.883 220.116 294.06 233.199 298.799 245.809Z" fill="#F0BF97"/>
    <path d="M414.777 234.147C422.77 256.111 397.559 299.944 365.334 299.944C338.037 299.944 315.891 270.491 315.891 234.147C315.891 194.549 355.603 163.515 365.334 168.35C369.251 170.278 366.029 176.883 369.536 188.165C377.94 215.122 407.953 215.438 414.746 234.147H414.777Z" fill="#F0BF97"/>
    <path d="M503.934 515.792H220.828V460.645C220.828 382.46 284.204 319.064 362.365 319.064C440.559 319.064 503.903 382.46 503.903 460.645V515.792H503.934Z" fill="#FFD15C"/>
    <path d="M546.111 427.778H468.139V516.551H546.111V427.778Z" style="fill: rgb(235, 182, 84);"/>
    <path d="M570.91 472.464C570.91 480.207 564.623 486.465 556.883 486.465C552.523 486.465 548.637 484.474 546.078 481.376V500.212C549.395 501.539 553.06 502.234 556.883 502.234C573.343 502.234 586.675 488.93 586.675 472.496C586.675 456.063 573.343 442.695 556.883 442.695C553.092 442.695 549.427 443.39 546.078 444.717V463.552C548.637 460.455 552.523 458.464 556.883 458.464C564.623 458.464 570.91 464.722 570.91 472.496V472.464Z" style="fill: rgb(235, 182, 84);"/>
    <path d="M602.946 516.551H127.785V540.664H602.946V516.551Z" fill="#D18C7E"/>
    <path d="M209.328 461.878C207.685 419.751 208.285 366.658 222.25 363.656C222.723 363.561 224.398 363.213 226.072 364.098C237.383 369.913 224.335 417.349 209.328 461.909V461.878Z" fill="#4CDBC4"/>
    <path d="M209.328 461.878C188.729 425.756 178.809 419.214 173.659 420.825C171.7 421.426 170.31 423.259 169.805 424.934C166.235 436.595 200.229 456.663 209.359 461.878H209.328Z" fill="#4CDBC4"/>
    <path d="M209.328 461.877C209.328 461.877 228.537 406.572 241.806 409.859C255.075 413.146 209.328 461.877 209.328 461.877Z" fill="#4CDBC4"/>
    <path d="M179.187 515.792H231.758L236.402 451.417H174.543L179.187 515.792Z" fill="#FF7058"/>
    <path d="M458.533 372.663H266.194C259.616 372.663 254.283 377.997 254.283 384.577V504.668C254.283 511.248 259.616 516.582 266.194 516.582H458.533C465.111 516.582 470.444 511.248 470.444 504.668V384.577C470.444 377.997 465.111 372.663 458.533 372.663Z" fill="white"/>
    <path d="M362.363 465.733C371.576 465.733 379.044 458.262 379.044 449.047C379.044 439.831 371.576 432.36 362.363 432.36C353.15 432.36 345.682 439.831 345.682 449.047C345.682 458.262 353.15 465.733 362.363 465.733Z" fill="#DFEAF7"/>
    <path d="M527.755 540.664C511.169 550.46 494.077 558.551 477.965 564.587C426.152 583.959 382.553 582.474 350.36 581.463C349.886 581.4 349.475 581.4 349.001 581.4C347.99 581.336 346.916 581.336 345.905 581.273C292.608 579.061 238.615 567.558 191.162 542.686C189.898 542.022 188.666 541.359 187.402 540.664H527.787H527.755Z" fill="#BC7F72"/>
  </g>
  <defs>
    <clipPath id="clip0_22_49896">
      <rect width="862" height="459" fill="white" transform="translate(10 122.5)"/>
    </clipPath>
  </defs>
</svg>