<svg width="17" height="25" viewBox="0 0 17 25" fill="none" xmlns="http://www.w3.org/2000/svg">
<g clip-path="url(#clip0_22_50181)">
<path d="M9.4568 0.00725965C10.6651 0.00725965 11.8752 -0.0105107 13.0835 0.0125908C14.4687 0.0374693 14.7925 0.606122 14.122 1.79851C12.7597 4.2224 11.3834 6.63917 10.0247 9.06483C9.5258 9.95512 9.62664 10.1204 10.6527 10.1328C12.0096 10.1488 13.3648 10.1382 14.7217 10.147C15.2029 10.1506 15.6894 10.1915 15.9441 10.689C16.2201 11.2257 15.8557 11.5882 15.5426 11.9419C13.2887 14.483 11.0331 17.0242 8.76685 19.5565C7.3091 21.186 5.83189 22.7978 4.3706 24.4238C4.01678 24.8183 3.64349 25.2003 3.08976 24.884C2.49003 24.5411 2.62802 23.9866 2.84562 23.4713C3.90709 20.9639 4.98094 18.4618 6.04595 15.9562C6.467 14.9646 6.34139 14.7745 5.23923 14.762C3.97078 14.7478 2.70232 14.778 1.43564 14.7425C0.101727 14.7051 -0.24502 14.2467 0.158338 13.0063C1.46394 9.00796 2.80847 5.02562 4.11408 1.02906C4.35645 0.286255 4.8288 0.000151498 5.56475 0.00370558C6.86151 0.0125908 8.16004 0.00548261 9.4568 0.00548261V0.00725965Z" fill="#FF7058"/>
</g>
<defs>
<clipPath id="clip0_22_50181">
<rect width="16.0423" height="24.9994" fill="white"/>
</clipPath>
</defs>
</svg>
