<?xml version="1.0" encoding="utf-8"?>
<!-- Generator: Adobe Illustrator 27.3.1, SVG Export Plug-In . SVG Version: 6.00 Build 0)  -->
<svg version="1.1" id="Calque_1" xmlns="http://www.w3.org/2000/svg" xmlns:xlink="http://www.w3.org/1999/xlink" x="0px" y="0px"
	 viewBox="0 0 40 28" style="enable-background:new 0 0 40 28;" xml:space="preserve">
<style type="text/css">
	.st0{clip-path:url(#SVGID_00000085969768101234932170000017257403018728489633_);}
	.st1{fill:#FF7058;}
	.st2{fill:#343434;}
	.st3{fill:#FFD15C;}
	.st4{fill:#54C0EB;}
	.st5{fill:#1E1E1E;}
</style>
<g>
	<defs>
		<rect id="SVGID_1_" width="40" height="28"/>
	</defs>
	<clipPath id="SVGID_00000151529050350712744080000005070179510985735084_">
		<use xlink:href="#SVGID_1_"  style="overflow:visible;"/>
	</clipPath>
	<g style="clip-path:url(#SVGID_00000151529050350712744080000005070179510985735084_);">
		<path class="st1" d="M33.7,8.3C25.7,3,17.4,2.5,8.8,6.7c-1.9,0.9-3.5,2.2-5,3.6c-1.1,1-2.3,1.1-3.1,0.3c-0.9-0.9-0.8-2.1,0.3-3.2
			C5.1,3.6,10,1.1,15.8,0.3c8.7-1.2,16.4,1.1,23,6.9c0.2,0.2,0.5,0.4,0.7,0.7c0.8,0.9,0.7,2.1-0.1,2.8c-0.8,0.7-1.9,0.7-2.8,0
			C36,10.2,35.4,9.6,34.8,9c0.1-0.4,0.7-0.7,0.2-1.1C34.5,7.5,34.1,8.1,33.7,8.3L33.7,8.3z"/>
		<path class="st2" d="M33.7,8.3c0.4-0.1,0.8-0.7,1.3-0.3c0.5,0.4-0.1,0.7-0.2,1.1c-0.7,0.9-1.5,1.8-2,2.9c-0.9,1-1.6,2.1-2.3,3.2
			C29.7,16,29,17,28.3,17.9c-0.8,1.1-1.6,2.2-2.3,3.3c-1.2,1.7-2.5,3.3-3.7,5.1c-0.8,1.2-2,1.8-3.4,1.7c-1.4-0.2-2.5-0.9-3-2.3
			c-0.5-1.5,0-2.7,1.2-3.6c1.3-1.1,2.6-2.2,3.9-3.3c1.3-0.9,2.6-2,3.8-3.1c1-0.8,1.9-1.5,2.9-2.3c1.1-0.9,2.3-1.7,3.2-2.7
			C31.9,9.9,32.8,9.1,33.7,8.3L33.7,8.3z"/>
		<path class="st3" d="M30.9,10.6c-1,1-2.2,1.8-3.2,2.7C22.2,9.8,14.1,10.8,9,15.6c-0.2,0.2-0.3,0.3-0.5,0.5c-1,1-2.1,1.1-3,0.3
			c-0.9-0.8-0.9-2,0.2-3.1c2.5-2.6,5.5-4.5,9.1-5.3c5.3-1.3,10.5-0.9,15.3,2C30.4,10.2,30.6,10.4,30.9,10.6L30.9,10.6z"/>
		<path class="st4" d="M24.8,15.6c-1.2,1.1-2.5,2.2-3.8,3.1c-3-0.4-5.4,0.7-7.3,2.9c-0.6,0.7-1.2,1.2-2.2,1.1
			c-1.6-0.2-2.2-1.9-1.2-3.3c2.8-3.9,8.5-5.7,13.3-4.2C24,15.3,24.4,15.5,24.8,15.6z"/>
		<path class="st3" d="M30.4,15.1c0.7-1.1,1.4-2.2,2.3-3.2c0.6,0.5,1.2,1,1.8,1.6c0.9,0.9,0.9,2,0.1,2.9c-0.9,0.8-2,0.8-2.9-0.1
			C31.2,15.9,30.8,15.5,30.4,15.1L30.4,15.1z"/>
		<path class="st4" d="M26,21.2c0.8-1.1,1.6-2.2,2.3-3.3c0.5,0.5,1,1,1.4,1.6c0.7,1,0.6,2.1-0.3,2.8c-0.9,0.7-2.1,0.6-2.9-0.4
			C26.4,21.7,26.2,21.5,26,21.2L26,21.2z"/>
	</g>
</g>
</svg>
