<svg width="24" height="24" viewBox="0 0 24 24" fill="none" xmlns="http://www.w3.org/2000/svg">
<g clip-path="url(#clip0_22_50126)">
<path d="M23.0414 18.5848L19.164 14.7101C18.6833 14.2298 17.9015 14.2298 17.4208 14.7101L14.9169 17.2123C11.5097 15.2539 8.67824 12.4244 6.71844 9.01952L9.22234 6.51733C9.70305 6.03696 9.70305 5.25569 9.22234 4.77531L5.3397 0.890067C4.859 0.409691 4.07719 0.409691 3.59648 0.890067L1.43066 3.04912C-2.33048 6.71793 4.6477 19.4875 15.7991 23.2038C15.7991 23.2038 19.1059 24.3018 20.8808 22.4859L23.0414 20.3268C23.5221 19.8465 23.5221 19.0652 23.0414 18.5848Z" fill="#40596B"/>
</g>
<defs>
<clipPath id="clip0_22_50126">
<rect width="23" height="23" fill="white" transform="translate(0.40625 0.53125)"/>
</clipPath>
</defs>
</svg>
