<svg width="24" height="24" viewBox="0 0 24 24" fill="none" xmlns="http://www.w3.org/2000/svg">
<g clip-path="url(#clip0_22_50173)">
<path d="M23.0414 19.0069L19.164 15.1322C18.6833 14.6519 17.9015 14.6519 17.4208 15.1322L14.9169 17.6344C11.5097 15.676 8.67824 12.8465 6.71844 9.44163L9.22234 6.93945C9.70305 6.45908 9.70305 5.67781 9.22234 5.19743L5.3397 1.31219C4.859 0.83181 4.07719 0.83181 3.59648 1.31219L1.43066 3.47124C-2.33048 7.14005 4.6477 19.9096 15.7991 23.6259C15.7991 23.6259 19.1059 24.7239 20.8808 22.908L23.0414 20.749C23.5221 20.2686 23.5221 19.4873 23.0414 19.0069Z" fill="white"/>
</g>
<defs>
<clipPath id="clip0_22_50173">
<rect width="23" height="23" fill="white" transform="translate(0.40625 0.953125)"/>
</clipPath>
</defs>
</svg>
