<svg width="99" height="104" viewBox="0 0 99 104" fill="none" xmlns="http://www.w3.org/2000/svg">
<path d="M57.8864 94.992C80.2077 90.4439 94.6158 68.6619 90.0677 46.3406C85.5196 24.0192 63.7377 9.61118 41.4163 14.1593C19.095 18.7073 4.68695 40.4893 9.23502 62.8106C13.7831 85.132 35.5651 99.54 57.8864 94.992Z" fill="#E4EFFF"/>
<path d="M92.5838 30.2512C88.7927 34.0423 83.7316 35.755 78.7667 35.4086L66.5276 47.6284L64.4492 49.726L35.4103 78.765C35.7567 83.7107 34.044 88.7911 30.2722 92.5821C25.7306 97.1236 19.3609 98.6631 13.5493 97.2583L24.2488 86.5588L11.2015 73.5114L0.501917 84.211C-0.902884 78.3994 0.636624 72.0297 5.17817 67.4881C8.96921 63.7163 14.0303 62.0036 18.9953 62.35L35.9106 45.4539L42.6652 38.6993L62.3517 19.0128C61.986 14.0672 63.6987 8.98679 67.4898 5.19575C72.0121 0.654202 78.3818 -0.885306 84.1934 0.519496L73.5131 11.1998L86.5604 24.2472L97.26 13.5476C98.6648 19.3592 97.1253 25.7289 92.5838 30.2512Z" fill="#40596B"/>
<path d="M64.4494 49.7261L45.6482 68.5273L44.3011 67.1803C42.7423 68.2579 40.5485 68.104 39.1437 66.6992L36.4304 64.005C34.8331 62.4078 34.8331 59.8291 36.4304 58.2511L42.6461 52.0353L35.9877 45.377L41.299 40.0657L47.9574 46.724L54.1539 40.5275C55.7512 38.9303 58.3299 38.9303 59.9079 40.5275L62.602 43.2217C64.026 44.6457 64.1607 46.801 63.0831 48.3983L64.4494 49.7261Z" fill="#334A5E"/>
<path d="M56.1933 38.4877L38.4889 56.192C36.8917 57.7893 36.8917 60.368 38.4889 61.946L41.1831 64.6401C42.5879 66.0449 44.7624 66.1989 46.3597 65.1212L76.1877 94.9492C77.7849 96.5464 80.3636 96.5464 81.9416 94.9492L94.9697 81.9211C96.5669 80.3238 96.5669 77.7452 94.9697 76.1672L65.1417 46.3392C66.2193 44.7612 66.0654 42.5866 64.6606 41.1626L61.9664 38.4685C60.3692 36.8905 57.7905 36.8905 56.1933 38.4877Z" fill="#4CDBC4"/>
<path d="M3.79299 0L0.00195312 3.7718L6.14074 12.9896L12.6067 17.916L44.6862 49.9955L49.9975 44.6842L17.918 12.5855L12.9916 6.13879L3.79299 0Z" fill="#F2F2F2"/>
<g style="mix-blend-mode:multiply">
<path d="M80.4596 88.2335L77.5153 91.1778C77.4383 91.2548 77.2844 91.2548 77.2074 91.1778L53.0948 67.0267C53.0179 66.9498 53.0179 66.7958 53.0948 66.7188L56.0392 63.7745C56.1161 63.6976 56.2701 63.6976 56.3471 63.7745L80.4788 87.9063C80.5558 88.0025 80.5558 88.1372 80.4596 88.2335Z" fill="#4CDBC4"/>
<path d="M91.1588 77.5338L88.2145 80.4781C88.1375 80.555 87.9836 80.555 87.9066 80.4781L63.7941 56.327C63.7171 56.2501 63.7171 56.0961 63.7941 56.0191L66.7384 53.0748C66.8153 52.9978 66.9693 52.9978 67.0463 53.0748L91.1781 77.2066C91.255 77.3028 91.255 77.4375 91.1588 77.5338Z" fill="#4CDBC4"/>
<path d="M85.8092 82.8834L82.8649 85.8277C82.7879 85.9047 82.634 85.9047 82.557 85.8277L58.4445 61.6766C58.3675 61.5997 58.3675 61.4457 58.4445 61.3687L61.3888 58.4244C61.4657 58.3475 61.6197 58.3475 61.6967 58.4244L85.8285 82.5562C85.9054 82.6524 85.9054 82.7872 85.8092 82.8834Z" fill="#4CDBC4"/>
</g>
</svg>
