<?xml version="1.0" encoding="utf-8"?>
<svg width="103" height="96" viewBox="0 0 103 96" fill="none" xmlns="http://www.w3.org/2000/svg">
  <path d="M61.073 82.4936C83.8529 82.4936 102.32 64.0267 102.32 41.2468C102.32 18.4668 83.8529 0 61.073 0C38.293 0 19.8262 18.4668 19.8262 41.2468C19.8262 64.0267 38.293 82.4936 61.073 82.4936Z" fill="#E4EFFF"/>
  <path d="M83.8546 45.2423V84.8751C83.8546 90.9939 78.8484 96.0001 72.7296 96.0001H11.2641C11.125 96.0001 10.9859 96.0001 10.8469 96.0001C4.86718 95.861 0 90.8548 0 84.8751V45.2423C0 39.1236 5.00625 34.1173 11.125 34.1173H72.5906C78.8484 33.9783 83.8546 38.9845 83.8546 45.2423Z" style="fill: rgb(247, 196, 137);"/>
  <path d="M68.0015 33.978C63.8296 44.5468 53.1218 52.4733 41.9968 52.4733C30.8719 52.4733 23.3625 44.5468 23.3625 34.1171H68.0015V33.978ZM21.5547 68.0483C21.5547 69.578 20.3031 70.8296 18.7734 70.8296H10.4297C8.9 70.8296 7.64844 69.578 7.64844 68.0483C7.64844 66.5186 8.9 65.2671 10.4297 65.2671H18.7734C20.3031 65.2671 21.5547 66.5186 21.5547 68.0483Z" style="fill: rgb(255, 154, 2);"/>
  <path d="M39.7719 78.3389C39.7719 79.3124 39.0765 80.0077 38.1031 80.0077H9.31719C8.34375 80.0077 7.64844 79.3124 7.64844 78.3389C7.64844 77.3655 8.34375 76.6702 9.31719 76.6702H37.964C38.9375 76.6702 39.7719 77.3655 39.7719 78.3389ZM20.9984 86.1264C20.9984 87.0998 20.3031 87.7952 19.3297 87.7952H9.45625C8.48281 87.7952 7.7875 87.0998 7.7875 86.1264C7.7875 85.153 8.48281 84.4577 9.45625 84.4577H19.3297C20.1641 84.4577 20.9984 85.153 20.9984 86.1264ZM56.1812 78.3389C56.1812 79.3124 55.4859 80.0077 54.5125 80.0077H45.6125C44.639 80.0077 43.9437 79.3124 43.9437 78.3389C43.9437 77.3655 44.639 76.6702 45.6125 76.6702H54.5125C55.3468 76.6702 56.1812 77.3655 56.1812 78.3389Z" fill="white"/>
  <path d="M39.7715 68.0483C39.7715 69.578 38.5199 70.8296 36.9902 70.8296H28.6465C27.1168 70.8296 25.8652 69.578 25.8652 68.0483C25.8652 66.5187 27.1168 65.2671 28.6465 65.2671H36.9902C38.5199 65.2671 39.7715 66.5187 39.7715 68.0483ZM58.1277 68.0483C58.1277 69.578 56.8761 70.8296 55.3465 70.8296H47.0027C45.473 70.8296 44.2215 69.578 44.2215 68.0483C44.2215 66.5187 45.473 65.2671 47.0027 65.2671H55.3465C56.8761 65.2671 58.1277 66.5187 58.1277 68.0483ZM76.3449 68.0483C76.3449 69.578 75.0933 70.8296 73.5636 70.8296H65.2199C63.6902 70.8296 62.4386 69.578 62.4386 68.0483C62.4386 66.5187 63.6902 65.2671 65.2199 65.2671H73.5636C75.0933 65.2671 76.3449 66.5187 76.3449 68.0483Z" style="fill: rgb(255, 154, 2);"/>
  <path d="M64.6625 29.6672C64.6625 42.1828 54.5109 52.3343 41.9953 52.3343C29.4797 52.3343 19.3281 42.1828 19.3281 29.6672C19.3281 17.1516 29.4797 7 41.9953 7C54.5109 7 64.6625 17.1516 64.6625 29.6672Z" style="fill: rgb(255, 195, 67);"/>
  <path d="M43.1066 45.6593C42.8285 45.6593 42.4113 45.6593 41.9941 45.6593C33.2332 45.6593 26.002 38.5672 26.002 29.6672C26.002 20.9062 33.0941 13.2578 42.9676 13.675C34.6238 14.2312 28.0879 21.1844 28.0879 29.6672C28.227 38.15 34.7629 45.1031 43.1066 45.6593Z" fill="#EA9734"/>
  <path d="M61.1847 23.1313C58.9597 24.3829 57.8472 26.0517 57.291 27.4423C57.1519 27.7204 56.7347 27.7204 56.5957 27.4423C56.0394 25.9126 54.9269 24.3829 52.7019 23.1313C52.4238 22.9923 52.4238 22.5751 52.7019 22.436C54.9269 21.1845 56.0394 19.5157 56.5957 18.1251C56.7347 17.847 57.1519 17.847 57.291 18.1251C57.8472 19.6548 58.9597 21.1845 61.1847 22.436C61.4629 22.5751 61.4629 22.9923 61.1847 23.1313ZM25.5848 34.1173C24.3332 34.8126 23.6379 35.786 23.3598 36.6204C23.2207 36.7595 23.0816 36.7595 22.9426 36.6204C22.6644 35.786 21.9691 34.8126 20.7176 34.1173C20.5785 33.9782 20.5785 33.8391 20.7176 33.7001C21.9691 33.0048 22.6644 32.0313 22.9426 31.197C23.0816 31.0579 23.2207 31.0579 23.3598 31.197C23.6379 32.0313 24.3332 33.0048 25.5848 33.7001C25.7238 33.8391 25.7238 33.9782 25.5848 34.1173Z" fill="white"/>
  <path d="M83.9933 44.9639H0.138672V58.1748H83.9933V44.9639Z" style="fill: rgb(255, 154, 2);"/>
</svg>