<?xml version="1.0" encoding="utf-8"?>
<svg width="128" height="75" viewBox="0 0 128 75" fill="none" xmlns="http://www.w3.org/2000/svg">
  <path d="M17.5761 61.0886C18.3837 50.9875 22.3451 41.7765 28.5371 34.4619L16.1146 22C6.7689 32.5268 0.846113 46.1111 0 61.0886H17.5761Z" fill="#4CDBC4"/>
  <path d="M33.2356 28.9202C40.466 22.6892 49.6194 18.6643 59.6958 17.8902V0.203613C44.8119 1.05505 31.3126 7.01509 20.8516 16.4196L33.2356 28.9202Z" style="fill: rgb(255, 179, 102);"/>
  <path d="M67 0V17.6479C77.038 18.4606 86.1914 22.4469 93.4603 28.6779L105.883 16.1773C95.3832 6.81148 81.8839 0.851434 67 0Z" fill="#FFD15C"/>
  <path d="M99 34.4619C105.192 41.7378 109.192 50.9488 109.961 61.0886H127.499C126.653 46.1111 120.73 32.5268 111.384 22L99 34.4619Z" fill="#FF7058"/>
  <path d="M93.1387 53.4348C93.1387 53.4348 67.074 49.4768 62.2076 50.4424C57.3412 51.408 54.2105 56.0638 55.1966 60.9069C56.1827 65.75 60.8737 68.8784 65.7401 67.9128C70.5691 66.9372 93.1387 53.4348 93.1387 53.4348Z" fill="#40596B"/>
</svg>