<svg width="109" height="112" viewBox="0 0 109 112" fill="none" xmlns="http://www.w3.org/2000/svg">
<path d="M64.5861 71.1722C84.2398 71.1722 100.172 55.2398 100.172 35.5861C100.172 15.9324 84.2398 0 64.5861 0C44.9324 0 29 15.9324 29 35.5861C29 55.2398 44.9324 71.1722 64.5861 71.1722Z" fill="#E4EFFF"/>
<path d="M105.372 108.779C101.039 113.091 94.0233 113.07 89.7111 108.736L76.2598 95.1991C71.9477 90.8655 71.9691 83.8503 76.3027 79.5381C80.6363 75.226 87.6516 75.2474 91.9637 79.581L105.415 93.1182C109.727 97.4517 109.706 104.467 105.372 108.779Z" fill="#FFD15C"/>
<g style="mix-blend-mode:multiply">
<path d="M105.372 108.779C101.038 113.091 94.0231 113.069 89.7109 108.736L105.415 93.1177C109.727 97.4513 109.706 104.467 105.372 108.779Z" fill="#FFD15C"/>
</g>
<path d="M15.7785 18.6059L15.7806 18.6039C30.7284 3.73281 55.0162 3.80691 69.8919 18.7785C84.746 33.7501 84.6683 58.0196 69.7172 72.8939C54.7694 87.765 30.4816 87.6909 15.6059 72.7192L15.6039 72.7172C0.732811 57.7694 0.806909 33.4816 15.7785 18.6059Z" stroke="#40596B" stroke-width="9"/>
<path d="M63.0217 47.8725C63.086 47.186 63.086 44.2683 63.0002 43.5389L67.0334 40.7285L65.3172 35.4724L60.4043 35.5797C59.6749 34.3354 58.8168 33.1555 57.8514 32.1042L59.4604 27.4489L54.9552 24.1665L51.0506 27.1485C49.742 26.5693 48.369 26.0973 46.9316 25.7969L45.5156 21.0986H39.9807L38.5647 25.7969C37.0844 26.0973 35.6685 26.5907 34.3384 27.1914L30.391 24.2523L25.9287 27.5347L27.5806 32.1901C26.6152 33.2627 25.757 34.4212 25.0491 35.687L20.1362 35.6012L18.4414 40.8787L22.4747 43.6677C22.4103 44.3542 22.4103 47.2718 22.4961 48.0012L18.4629 50.8116L20.1791 56.0677L25.092 55.9605C25.8214 57.2048 26.6795 58.3847 27.6449 59.4359L26.0359 64.0913L30.5197 67.3308L34.4242 64.3488C35.7329 64.928 37.1059 65.4 38.5433 65.7003L39.9592 70.3986H45.5156L46.9316 65.7003C48.4119 65.4 49.8278 64.9066 51.1579 64.3059L55.0839 67.2664L59.5462 63.9841L57.8943 59.3287C58.8597 58.256 59.7178 57.0975 60.4258 55.8318L65.3386 55.9176L67.0334 50.64L63.0217 47.8725ZM42.7482 59.629C35.0893 59.629 28.8892 53.429 28.8892 45.7701C28.8892 38.1112 35.0893 31.9112 42.7482 31.9112C50.407 31.9112 56.6071 38.1112 56.6071 45.7701C56.6071 53.429 50.407 59.629 42.7482 59.629Z" fill="#4CDBC4"/>
<path d="M76.3021 79.5379C77.5893 78.2507 79.1339 77.3926 80.7644 76.8777L76.2163 72.3081C75.1865 73.6168 74.0924 74.8825 72.8695 76.0839C71.6681 77.2853 70.3809 78.3794 69.0723 79.4092L73.6204 83.9788C74.1567 82.3698 75.0149 80.8251 76.3021 79.5379Z" fill="#FF7058"/>
</svg>
