<svg width="88" height="104" viewBox="0 0 88 104" fill="none" xmlns="http://www.w3.org/2000/svg">
<path d="M43.9944 89.6591C64.4247 89.6591 80.9867 73.0971 80.9867 52.6667C80.9867 32.2364 64.4247 15.6743 43.9944 15.6743C23.564 15.6743 7.00195 32.2364 7.00195 52.6667C7.00195 73.0971 23.564 89.6591 43.9944 89.6591Z" fill="#E4EFFF"/>
<path d="M20.4521 44.2583H17.0913C15.233 44.2583 13.7266 45.7647 13.7266 47.623V77.886C13.7266 79.7443 15.233 81.2507 17.0913 81.2507H20.4521C22.3104 81.2507 23.8168 79.7443 23.8168 77.886V47.623C23.8168 45.7647 22.3104 44.2583 20.4521 44.2583Z" fill="#303E58"/>
<path d="M70.8955 44.2583H67.5346C65.6763 44.2583 64.1699 45.7647 64.1699 47.623V77.886C64.1699 79.7443 65.6763 81.2507 67.5346 81.2507H70.8955C72.7537 81.2507 74.2601 79.7443 74.2601 77.886V47.623C74.2601 45.7647 72.7537 44.2583 70.8955 44.2583Z" fill="#303E58"/>
<path d="M54.0807 93.0234C56.8705 93.0234 59.1239 95.2769 59.1239 98.0666C59.1239 100.856 56.8705 103.11 54.0807 103.11H43.9904C41.2007 103.11 38.9473 100.856 38.9473 98.0666C38.9473 95.2769 41.2007 93.0234 43.9904 93.0234H54.0807Z" fill="#FFD15C"/>
<path d="M13.7265 47.6232V77.8901C12.3297 80.0085 10.5817 79.5724 8.68328 79.5724C4.04139 79.5724 0.275391 72.0405 0.275391 62.7567C0.275391 53.4729 4.04139 45.9409 8.68328 45.9409C10.5817 45.9409 12.3335 45.5049 13.7265 47.6232Z" fill="#FF7058"/>
<path d="M78.346 79.5879C76.8142 79.638 75.4212 79.638 74.2598 77.8901V47.6232C75.6566 45.5049 77.4045 45.9409 79.303 45.9409C83.9449 45.9409 87.7109 53.4729 87.7109 62.7567C87.7109 72.0405 83.9449 79.5724 79.303 79.5724C78.9827 79.5724 78.6624 79.5879 78.346 79.5879Z" fill="#FF7058"/>
<path d="M8.5918 45.7179V37.3101C8.5918 17.8048 24.3966 2 43.9018 2C63.4071 2 79.2119 17.8048 79.2119 37.3101V45.7179" stroke="#303E58" stroke-width="3" stroke-linecap="round" stroke-linejoin="round"/>
<path d="M59.5273 98.4427H69.7179C71.9713 98.4427 73.9547 96.9456 74.5759 94.7616L78.747 79.9639" stroke="#303E58" stroke-width="3" stroke-linecap="round" stroke-linejoin="round"/>
</svg>
