<svg width="97" height="97" viewBox="0 0 97 97" fill="none" xmlns="http://www.w3.org/2000/svg">
<path d="M43.2312 87.9828C66.0111 87.9828 84.4779 69.516 84.4779 46.736C84.4779 23.9561 66.0111 5.48926 43.2312 5.48926C20.4512 5.48926 1.98438 23.9561 1.98438 46.736C1.98438 69.516 20.4512 87.9828 43.2312 87.9828Z" fill="#E4EFFF"/>
<path fill-rule="evenodd" clip-rule="evenodd" d="M52.8855 7.93297C50.7396 7.93297 49 6.15718 49 3.96649C49 1.7758 50.7396 0 52.8855 0C64.175 0 75.4648 4.39685 84.0788 13.1904C88.2871 17.4863 91.4742 22.4636 93.6378 27.7958C95.856 33.2607 96.9985 39.118 97 45.0335C97 47.2242 95.2604 49 93.1145 49C90.9685 49 89.2289 47.2242 89.2289 45.0335C89.2289 40.1718 88.3106 35.3281 86.4741 30.8018C84.7116 26.4581 82.0824 22.3698 78.5847 18.7994C71.4883 11.5552 62.1871 7.93297 52.8855 7.93297ZM52.8855 40.0724C53.5428 40.0724 54.1825 40.1954 54.7642 40.4413C55.3103 40.6722 55.8401 41.0329 56.3225 41.5252C56.8049 42.0174 57.1581 42.5584 57.3842 43.1159C57.6251 43.7095 57.7456 44.3626 57.7456 45.0335C57.7456 47.2242 59.4851 49 61.6311 49C63.7771 49 65.5167 47.2242 65.5167 45.0335C65.5167 43.3765 65.1938 41.7013 64.5482 40.1099C63.9209 38.564 63.0097 37.1339 61.8168 35.9161C60.624 34.6984 59.2232 33.7683 57.7087 33.1279C56.1498 32.4689 54.5087 32.1393 52.8855 32.1393C50.7396 32.1393 49 33.9151 49 36.1057C49 38.2964 50.7397 40.0724 52.8855 40.0724ZM52.8855 23.9873C55.5714 23.9873 58.2633 24.5226 60.7955 25.5934C63.196 26.6084 65.4634 28.1307 67.4534 30.1624C69.4434 32.1938 70.9348 34.5084 71.9291 36.9589C72.9677 39.5189 73.5023 42.2627 73.5024 45.0335C73.5024 47.2155 75.2352 48.9845 77.3728 48.9845C79.5102 48.9845 81.2432 47.2157 81.2432 45.0335C81.2432 41.2566 80.5265 37.4857 79.0931 33.9531C77.6976 30.514 75.6484 27.3103 72.9479 24.5535C70.2475 21.7966 67.1091 19.7047 63.7402 18.2803C60.2797 16.8171 56.5853 16.0855 52.8857 16.0855C50.7483 16.0855 49.0153 17.8545 49.0153 20.0365C49.0153 22.2185 50.7481 23.9873 52.8855 23.9873Z" fill="#FF7058"/>
<path fill-rule="evenodd" clip-rule="evenodd" d="M39.8618 57.1381C35.5545 52.8386 31.7369 48.0794 28.4917 42.9482C27.3068 41.0741 27.3193 38.8225 28.5242 36.9619L33.155 29.8121C34.143 28.2859 34.3315 26.5446 33.6928 24.8428L25.7272 3.6125C24.4797 0.287707 20.5319 -1.02786 17.5392 0.884179L6.42621 7.98454C1.35464 11.225 -0.999954 17.0501 0.397157 22.9044C4.69703 40.9229 14.0755 57.1381 27.0377 69.9623C39.8618 82.9247 56.0771 92.3032 74.0958 96.6028C79.9498 98 85.7751 95.6454 89.0156 90.5738L96.1157 79.4608C98.028 76.4681 96.7122 72.5201 93.3874 71.2727L72.1573 63.307C70.4553 62.6683 68.7142 62.8568 67.188 63.8448L60.0382 68.4758C58.1776 69.6806 55.9261 69.6932 54.052 68.5082C48.9206 65.263 44.1613 61.4454 39.8618 57.1381Z" fill="#4CDBC4"/>
<g style="mix-blend-mode:multiply">
<path fill-rule="evenodd" clip-rule="evenodd" d="M80.6544 90.0669C62.6304 85.7657 46.4102 76.3843 33.5822 63.4181C20.6156 50.5901 11.2343 34.3698 6.93328 16.3456C6.15215 13.0726 6.5434 9.80858 7.92627 7L6.42818 7.95719C1.35506 11.1987 -1.00026 17.0256 0.397279 22.8816C4.69847 40.9057 14.0798 57.1261 27.046 69.954C39.874 82.9203 56.0942 92.3017 74.1184 96.6027C79.9743 98.0003 85.8013 95.6449 89.0428 90.5718L90 89.0737C87.1914 90.4568 83.9274 90.848 80.6544 90.0669Z" fill="#4CDBC4" fill-opacity="0.53"/>
</g>
</svg>
