<svg width="106" height="98" viewBox="0 0 106 98" fill="none" xmlns="http://www.w3.org/2000/svg">
<path d="M55.2233 71.8154V2.22408C55.2233 1.00083 54.2224 0 52.9992 0C51.7759 0 50.7751 1.00083 50.7751 2.22408V71.8376C50.3303 72.3492 50.0412 72.9942 50.0412 73.7281V85.3378C50.0412 88.8741 47.1721 91.7431 43.6358 91.7431C40.0996 91.7431 37.2305 88.8741 37.2305 85.3378V82.4242C37.2305 80.7784 35.896 79.4662 34.2725 79.4662C32.6489 79.4662 31.3145 80.8007 31.3145 82.4242V85.3378C31.3145 92.1435 36.8524 97.6592 43.6358 97.6592C50.4193 97.6592 55.9572 92.1212 55.9572 85.3378V73.7281C55.9794 72.9942 55.6681 72.327 55.2233 71.8154Z" fill="#40596B"/>
<path d="M78.088 51.1536C66.9009 45.5267 53.0004 46.1717 53.0004 46.1717C53.0004 46.1717 39.1222 45.5267 27.8906 51.1536C27.8906 51.1536 31.9829 8.11775 53.0004 6.00488C73.9957 8.11775 78.088 51.1536 78.088 51.1536Z" fill="#F8B64C"/>
<path d="M77.4199 50.8428L77.6868 51.1541C77.6868 51.1541 77.7535 51.1097 77.8425 51.0429C77.6868 50.9762 77.5534 50.9095 77.4199 50.8428Z" fill="#F7C657"/>
<path d="M28.1562 51.0429C28.2675 51.1097 28.3119 51.1541 28.3119 51.1541L28.5788 50.8428C28.4454 50.9095 28.3119 50.9762 28.1562 51.0429Z" fill="#F7C657"/>
<path d="M53.0234 6.00537C73.0624 8.02928 77.6884 47.3509 78.0665 50.865C80.3796 49.2414 93.5239 40.7232 106.001 47.4399C106.001 47.4399 94.28 6.00537 53.0234 6.00537Z" fill="#FF7058"/>
<path d="M0 47.4399C12.4993 40.7232 25.6214 49.2414 27.9344 50.865C28.3125 47.3287 32.9386 8.02928 53.022 6.00537C11.7209 6.00537 0 47.4399 0 47.4399Z" fill="#FF7058"/>
</svg>
